{
	"asset":{
		"generator":"Khronos glTF Blender I/O v4.4.55",
		"version":"2.0"
	},
	"extensionsUsed":[
		"KHR_materials_specular",
		"KHR_materials_ior"
	],
	"scene":0,
	"scenes":[
		{
			"name":"Scene",
			"nodes":[
				3
			]
		}
	],
	"nodes":[
		{
			"mesh":0,
			"name":"Material-material"
		},
		{
			"children":[
				0
			],
			"name":"CONTROLADORDJ"
		},
		{
			"children":[
				1
			],
			"name":"Collada visual scene group"
		},
		{
			"children":[
				2
			],
			"name":"Sketchfab_model",
			"rotation":[
				-0.70710688829422,
				0,
				0,
				0.7071066498756409
			]
		}
	],
	"materials":[
		{
			"doubleSided":true,
			"extensions":{
				"KHR_materials_specular":{
					"specularColorFactor":[
						0.0,
						0.0,
						0.0
					]
				},
				"KHR_materials_ior":{
					"ior":1000
				}
			},
			"name":"Material.001",
			"pbrMetallicRoughness":{
				"baseColorTexture":{
					"index":0
				},
				"metallicFactor":0
			}
		}
	],
	"meshes":[
		{
			"name":"Material-material",
			"primitives":[
				{
					"attributes":{
						"POSITION":0,
						"NORMAL":1,
						"TEXCOORD_0":2
					},
					"indices":3,
					"material":0
				}
			]
		}
	],
	"textures":[
		{
			"sampler":0,
			"source":0
		}
	],
	"images":[
		{
			"mimeType":"image/png",
			"name":"Material_diffuse",
			"uri":"Material_diffuse.png"
		}
	],
	"accessors":[
		{
			"bufferView":0,
			"componentType":5126,
			"count":10953,
			"max":[
				0.8154605031013489,
				0.3934434950351715,
				0.05145858973264694
			],
			"min":[
				-0.8154605031013489,
				-0.39344340562820435,
				-0.06916742771863937
			],
			"type":"VEC3"
		},
		{
			"bufferView":1,
			"componentType":5126,
			"count":10953,
			"type":"VEC3"
		},
		{
			"bufferView":2,
			"componentType":5126,
			"count":10953,
			"type":"VEC2"
		},
		{
			"bufferView":3,
			"componentType":5123,
			"count":14604,
			"type":"SCALAR"
		}
	],
	"bufferViews":[
		{
			"buffer":0,
			"byteLength":131436,
			"byteOffset":0,
			"target":34962
		},
		{
			"buffer":0,
			"byteLength":131436,
			"byteOffset":131436,
			"target":34962
		},
		{
			"buffer":0,
			"byteLength":87624,
			"byteOffset":262872,
			"target":34962
		},
		{
			"buffer":0,
			"byteLength":29208,
			"byteOffset":350496,
			"target":34963
		}
	],
	"samplers":[
		{
			"magFilter":9729,
			"minFilter":9987
		}
	],
	"buffers":[
		{
			"byteLength":379704,
			"uri":"scene.bin"
		}
	]
}
