<?xml version="1.0" encoding="UTF-8"?>
<svg id="Ebene_1" xmlns="http://www.w3.org/2000/svg" version="1.1" viewBox="0 0 1920 1080">
  <!-- Generator: Adobe Illustrator 29.4.0, SVG Export Plug-In . SVG Version: 2.1.0 Build 152)  -->
  <defs>
    <style>
      .st0 {
        fill: red;
      }
    </style>
  </defs>
  <path class="st0" d="M591.3,550.64h-22.62v22.62h-90.94v45.47h-43.9v-157.47h134.85v22.62h22.62v66.75h-.01ZM546.05,550.64v-66.75h-66.98v66.75h66.98Z"/>
  <path class="st0" d="M747.65,618.74h-112.22v-21.73h22.85v-114.46h-22.85v-21.28h112.22v21.28h-22.85v114.46h22.85v21.73Z"/>
  <path class="st0" d="M949.25,596.11h-22.62v22.62h-112.45v-22.62h-22.4v-112.22h22.4v-22.62h112.45v22.62h22.62v21.28h-44.13v-22.62h-69.44v114.91h69.44v-46.59h-45.25v-21.73h89.38v66.98h0Z"/>
  <path class="st0" d="M1128.22,618.74h-157.47v-157.47h157.47v21.28h-113.34v46.82h90.72v21.28h-90.72v46.82h113.34v21.28h0Z"/>
  <path class="st0" d="M1307.2,596.11h-22.62v22.62h-112.22v-22.62h-22.62v-112.22h22.62v-22.62h112.22v22.62h22.62v112.22ZM1261.95,596.11v-112.22h-66.98v112.22h66.98Z"/>
  <path class="st0" d="M1486.17,618.74h-44.13v-22.85h-22.62v-22.62h-23.07l-.45-22.18h-23.3v67.65h-43.9v-157.47h43.9v22.85h22.85v22.62h22.96l.22,22.62h23.41v-68.1h44.13v157.47h0Z"/>
</svg>