<style>
rect{transform-box: fill-box; transform-origin: center center;}
</style>
<svg viewBox="-835 -330 1920 1080" fill="black" xmlns="http://www.w3.org/2000/svg">
<filter id="blur">
    <feGaussianBlur stdDeviation="3.5" edgeMode="duplicate" />
    <feDisplacementMap scale="30" yChannelSelector="G" in2="result1" result="result3" xChannelSelector="R" in="SourceGraphic"/>
  </filter>


<rect width="10" height="10" fill="white" class="quad-vis-outer"/>
<rect x="34" width="10" height="10" fill="white" class="quad-vis-outer"/>
<rect x="67" width="10" height="10" fill="white" class="quad-vis-outer"/>
<rect x="101" width="10" height="10" fill="white" class="quad-vis-outer"/>
<rect x="135" width="10" height="10" fill="white" class="quad-vis-outer"/>
<rect x="168" width="10" height="10" fill="white" class="quad-vis-outer"/>
<rect x="202" width="10" height="10" fill="white" class="quad-vis-outer"/>
<rect x="236" width="10" height="10" fill="white" class="quad-vis-outer"/>
<rect x="269" width="10" height="10" fill="white" class="quad-vis-outer"/>
<rect y="34" width="10" height="10" fill="white" class="quad-vis-outer"/>
<rect y="67" width="10" height="10" fill="white" class="quad-vis-outer"/>
<rect y="101" width="10" height="10" fill="white" class="quad-vis-outer"/>
<rect y="135" width="10" height="10" fill="white" class="quad-vis-outer"/>
<rect y="168" width="10" height="10" fill="white" class="quad-vis-outer"/>
<rect y="202" width="10" height="10" fill="white" class="quad-vis-outer"/>
<rect y="236" width="10" height="10" fill="white" class="quad-vis-outer"/>
<rect y="269" width="10" height="10" fill="white" class="quad-vis-outer"/>
<rect x="31" y="31" width="15" height="15" fill="white" class="quad-vis-middle"/>
<rect x="31" y="64" width="15" height="15" fill="white" class="quad-vis-middle"/>
<rect x="31" y="98" width="15" height="15" fill="white" class="quad-vis-middle"/>
<rect x="31" y="132" width="15" height="15" fill="white" class="quad-vis-middle"/>
<rect x="31" y="165" width="15" height="15" fill="white" class="quad-vis-middle"/>
<rect x="31" y="199" width="15" height="15" fill="white" class="quad-vis-middle"/>
<rect x="31" y="233" width="15" height="15" fill="white" class="quad-vis-middle"/>
<rect x="34" y="269" width="10" height="10" fill="white" class="quad-vis-outer"/>
<rect x="64" y="31" width="15" height="15" fill="white" class="quad-vis-middle"/>
<rect x="62" y="62" width="20" height="20" fill="white" class="quad-vis-middle"/>
<rect x="62" y="96" width="20" height="20" fill="white" class="quad-vis-middle"/>
<rect x="62" y="130" width="20" height="20" fill="white" class="quad-vis-middle"/>
<rect x="62" y="163" width="20" height="20" fill="white" class="quad-vis-middle"/>
<rect x="62" y="197" width="20" height="20" fill="white" class="quad-vis-middle"/>
<rect x="64" y="233" width="15" height="15" fill="white" class="quad-vis-middle"/>
<rect x="67" y="269" width="10" height="10" fill="white" class="quad-vis-outer"/>
<rect x="98" y="31" width="15" height="15" fill="white" class="quad-vis-middle"/>
<rect x="96" y="62" width="20" height="20" fill="white" class="quad-vis-middle"/>
<rect x="93" y="93" width="25" height="25" fill="blue" class="quad-vis-inner"/>
<rect x="93" y="127" width="25" height="25" fill="blue" class="quad-vis-inner"/>
<rect x="93" y="160" width="25" height="25" fill="blue" class="quad-vis-inner"/>
<rect x="96" y="197" width="20" height="20" fill="white" class="quad-vis-middle"/>
<rect x="98" y="233" width="15" height="15" fill="white" class="quad-vis-middle"/>
<rect x="101" y="269" width="10" height="10" fill="white" class="quad-vis-outer"/>
<rect x="132" y="31" width="15" height="15" fill="white" class="quad-vis-middle"/>
<rect x="130" y="62" width="20" height="20" fill="white" class="quad-vis-middle"/>
<rect x="127" y="93" width="25" height="25" fill="blue" class="quad-vis-inner"/>
<rect x="127" y="127" width="25" height="25" fill="blue" class="quad-vis-inner"/>
<rect x="127" y="160" width="25" height="25" fill="blue" class="quad-vis-inner"/>
<rect x="130" y="197" width="20" height="20" fill="white" class="quad-vis-middle"/>
<rect x="132" y="233" width="15" height="15" fill="white" class="quad-vis-middle"/>
<rect x="135" y="269" width="10" height="10" fill="white" class="quad-vis-outer"/>
<rect x="165" y="31" width="15" height="15" fill="white" class="quad-vis-middle"/>
<rect x="163" y="62" width="20" height="20" fill="white" class="quad-vis-middle"/>
<rect x="160" y="93" width="25" height="25" fill="blue" class="quad-vis-inner"/>
<rect x="160" y="127" width="25" height="25" fill="blue" class="quad-vis-inner"/>
<rect x="160" y="160" width="25" height="25" fill="blue" class="quad-vis-inner"/>
<rect x="163" y="197" width="20" height="20" fill="white" class="quad-vis-middle"/>
<rect x="165" y="233" width="15" height="15" fill="white" class="quad-vis-middle"/>
<rect x="168" y="269" width="10" height="10" fill="white" class="quad-vis-outer"/>
<rect x="199" y="31" width="15" height="15" fill="white" class="quad-vis-middle"/>
<rect x="197" y="62" width="20" height="20" fill="white" class="quad-vis-middle"/>
<rect x="197" y="96" width="20" height="20" fill="white" class="quad-vis-middle"/>
<rect x="197" y="130" width="20" height="20" fill="white" class="quad-vis-middle"/>
<rect x="197" y="163" width="20" height="20" fill="white" class="quad-vis-middle"/>
<rect x="197" y="197" width="20" height="20" fill="white" class="quad-vis-middle"/>
<rect x="199" y="233" width="15" height="15" fill="white" class="quad-vis-middle"/>
<rect x="202" y="269" width="10" height="10" fill="white" class="quad-vis-outer"/>
<rect x="233" y="31" width="15" height="15" fill="white" class="quad-vis-middle"/>
<rect x="233" y="64" width="15" height="15" fill="white" class="quad-vis-middle"/>
<rect x="233" y="98" width="15" height="15" fill="white" class="quad-vis-middle"/>
<rect x="233" y="132" width="15" height="15" fill="white" class="quad-vis-middle"/>
<rect x="233" y="165" width="15" height="15" fill="white" class="quad-vis-middle"/>
<rect x="233" y="199" width="15" height="15" fill="white" class="quad-vis-middle"/>
<rect x="233" y="233" width="15" height="15" fill="white" class="quad-vis-middle"/>
<rect x="236" y="269" width="10" height="10" fill="white" class="quad-vis-outer"/>
<rect x="269" y="34" width="10" height="10" fill="white" class="quad-vis-outer"/>
<rect x="269" y="67" width="10" height="10" fill="white" class="quad-vis-outer"/>
<rect x="269" y="101" width="10" height="10" fill="white" class="quad-vis-outer"/>
<rect x="269" y="135" width="10" height="10" fill="white" class="quad-vis-outer"/>
<rect x="269" y="168" width="10" height="10" fill="white" class="quad-vis-outer"/>
<rect x="269" y="202" width="10" height="10" fill="white" class="quad-vis-outer"/>
<rect x="269" y="236" width="10" height="10" fill="white" class="quad-vis-outer"/>
<rect x="269" y="269" width="10" height="10" fill="white" class="quad-vis-outer"/>
</svg>
